<svg xmlns="http://www.w3.org/2000/svg" xmlns:svg="http://www.w3.org/2000/svg" id="svg2" width="354.331" height="354.331" version="1.1"><metadata id="metadata7"/><g id="layer1"><path style="fill:none;stroke:#000;stroke-width:9.5;stroke-miterlimit:4;stroke-opacity:1" id="path2989" d="m 353.77854,177.32413 c 0,97.84573 -79.31963,177.16536 -177.16536,177.16536 -97.845731,0 -177.1653637,-79.31963 -177.1653637,-177.16536 0,-97.845724 79.3196327,-177.1653579 177.1653637,-177.1653579 97.84573,0 177.16536,79.3196339 177.16536,177.1653579 z"/><path style="fill:none;stroke:#000;stroke-width:9.5;stroke-miterlimit:4;stroke-opacity:1" id="path3043" d="m 212.04625,177.32413 c 0,19.56914 -15.86393,35.43307 -35.43307,35.43307 -19.56915,0 -35.43307,-15.86393 -35.43307,-35.43307 0,-19.56915 15.86392,-35.43307 35.43307,-35.43307 19.56914,0 35.43307,15.86392 35.43307,35.43307 z"/><path style="fill:none;stroke:#000;stroke-width:9.5;stroke-miterlimit:4;stroke-opacity:1" id="path3051" d="m 212.04625,75.324133 c 0,19.569137 -15.86393,35.433067 -35.43307,35.433067 -19.56915,0 -35.43307,-15.86393 -35.43307,-35.433067 0,-19.56915 15.86392,-35.43307 35.43307,-35.43307 19.56914,0 35.43307,15.86392 35.43307,35.43307 z"/><path style="fill:none;stroke:#000;stroke-width:9.5;stroke-miterlimit:4;stroke-opacity:1" id="path3053" d="m 212.04625,285.32413 c 0,19.56914 -15.86393,35.43307 -35.43307,35.43307 -19.56915,0 -35.43307,-15.86393 -35.43307,-35.43307 0,-19.56915 15.86392,-35.43307 35.43307,-35.43307 19.56914,0 35.43307,15.86392 35.43307,35.43307 z"/><path style="fill:none;stroke:#000;stroke-width:9.5;stroke-miterlimit:4;stroke-opacity:1" id="path3055" d="m 108.04625,177.32413 c 0,19.56914 -15.863934,35.43307 -35.433074,35.43307 -19.56915,0 -35.43307,-15.86393 -35.43307,-35.43307 0,-19.56915 15.86392,-35.43307 35.43307,-35.43307 19.56914,0 35.433074,15.86392 35.433074,35.43307 z"/><path style="fill:none;stroke:#000;stroke-width:9.5;stroke-miterlimit:4;stroke-opacity:1" id="path3057" d="m 320.04625,177.32413 c 0,19.56914 -15.86393,35.43307 -35.43307,35.43307 -19.56915,0 -35.43307,-15.86393 -35.43307,-35.43307 0,-19.56915 15.86392,-35.43307 35.43307,-35.43307 19.56914,0 35.43307,15.86392 35.43307,35.43307 z"/></g></svg>